<?xml version="1.0" encoding="UTF-8" standalone="no"?>
<!-- Uploaded to: SVG Repo, www.svgrepo.com, Generator: SVG Repo Mixer Tools -->

<svg
   width="116.66669"
   height="533.33337"
   viewBox="0 0 3.5000008 16.000001"
   fill="none"
   version="1.1"
   id="svg1"
   xml:space="preserve"
   xmlns="http://www.w3.org/2000/svg"
   xmlns:svg="http://www.w3.org/2000/svg"><defs
     id="defs1" /><g
     style="fill:#fdffe0;fill-opacity:1"
     id="g1"
     transform="translate(-10,-3.9999999)"><path
       fill-rule="evenodd"
       clip-rule="evenodd"
       d="M 12,7 C 12.8284,7 13.5,6.32843 13.5,5.5 13.5,4.67157 12.8284,4 12,4 11.1716,4 10.5,4.67157 10.5,5.5 10.5,6.32843 11.1716,7 12,7 Z m -1,2 c -0.5523,0 -1,0.44772 -1,1 0,0.5523 0.4477,1 1,1 v 8 c 0,0.5523 0.4477,1 1,1 0.5523,0 1,-0.4477 1,-1 V 10 C 13,9.44772 12.5523,9 12,9 Z"
       fill="#000000"
       id="path1"
       style="fill:#fdffe0;fill-opacity:1" /></g></svg>
