<?xml version="1.0" encoding="UTF-8" standalone="no"?>
<svg
   width="806.74414"
   height="849.56207"
   viewBox="0 0 806.74414 849.56207"
   version="1.1"
   id="svg1"
   sodipodi:docname="emily-explaining-cropped.svg"
   xml:space="preserve"
   xmlns:inkscape="http://www.inkscape.org/namespaces/inkscape"
   xmlns:sodipodi="http://sodipodi.sourceforge.net/DTD/sodipodi-0.dtd"
   xmlns="http://www.w3.org/2000/svg"
   xmlns:svg="http://www.w3.org/2000/svg"><defs
     id="defs1"><clipPath
       clipPathUnits="userSpaceOnUse"
       id="clipPath1"><rect
         style="opacity:0.5;fill:#fdffe0"
         id="rect2"
         width="812.52057"
         height="425.60602"
         x="8.2910261"
         y="-8.2910261" /></clipPath></defs><sodipodi:namedview
     id="namedview1"
     pagecolor="#505050"
     bordercolor="#eeeeee"
     borderopacity="1"
     inkscape:showpageshadow="0"
     inkscape:pageopacity="0"
     inkscape:pagecheckerboard="0"
     inkscape:deskcolor="#505050"><inkscape:page
       x="0"
       y="0"
       width="806.74414"
       height="849.56207"
       id="page1"
       margin="0"
       bleed="0" /></sodipodi:namedview><!-- Generator: Sketch 62 (91390) - https://sketch.com --><title
     id="title1">body/mono/Hoodie</title><desc
     id="desc1">Created with Sketch.</desc><g
     id="body/mono/Hoodie"
     stroke="none"
     stroke-width="1"
     fill="none"
     fill-rule="evenodd"
     clip-path="url(#clipPath1)"
     transform="matrix(-1,0,0,1,815.03515,432.24707)"><path
       d="m 790.7482,715.6861 c 19.326,-0.933 11.553,-34.738 10.166,-47.153 -15.301,-45.344 -11.704,-94.816 -17.722,-142.344 -3.749,-44.368 -8.566,-88.598 -12.618,-132.932 -7.958,-89.994 -65.10499,-273.19786 -130.3203,-302.6615 -8.215,-36.046 -42.14591,-69.694228 -85.07584,-69.694228 -29.28,-34.659 -64.52286,-59.051272 -109.72586,-54.126272 -18.68,0.85 -36.7958,20.662 -54.6948,24.488 -10.022,1.382 -98.9622,-2.175 -116.7782,8.406 -12.41,6.372 -23.613,18.147 -19.964,33.138 5.822,18.162 -12.271,-1.49 -50.014,17.895 C 127.038,96.925257 173.028,158.76174 175.066,160.67774 127.038,227.50074 85.0592,281.7131 65.6362,363.3901 c -12.588,60.639 -11.171,123.238 -21.718,184.188 -3.724,21.134 -9.437,41.545 -15.619,62.068 -6.7,26.859 -9.95784,93.80267 -13.65084,94.40067 -6.7270001,1.671 3.88784,15.48333 11.01584,15.49433 197.624,32.781 398.362,1.358 597.048,-3.776 55.993,-1.947 112.046,-2.396 168.036,-0.079 z"
       id="ðŸŽ¨-Background"
       fill="#ffffff" /><path
       d="m 491.2195,166.5759 c 0.092,-0.905 1.312,-0.903 1.406,0 l 1.39525,13.46915 c 1.69761,16.45007 3.33189,32.86814 4.51675,49.39485 1.477,20.609 2.465,41.213 2.941,61.868 1.66,71.937 1.99,143.912 2.13,215.867 9.731,-0.674 19.463,-1.323 29.2,-1.951 6.606,-0.42667 13.21244,-0.836 19.81963,-1.23867 l 16.84737,-1.02158 v 0 l 6.936,-0.42575 c 4.687,-0.29 10.012,-1.47 13.289,2.682 1.312,1.662 1.97,3.822 0.747,5.795 -2.821,4.551 -7.154,4.392 -12.055,4.589 -4.624,0.187 -9.248,0.37 -13.872,0.548 -9.909,0.385 -19.817,0.748 -29.729,1.026 -10.402,0.292 -20.799,0.529 -31.197,0.706 -0.10522,30.37652 -1.36204,60.71524 -2.72108,91.05823 l -0.61492,13.65477 c -1.663,36.926 -3.452,73.884 -5.993,110.761 -0.209,3.019 -4.48,3.013 -4.687,0 -2.862,-41.529 -4.75,-83.147 -6.622,-124.732 -1.358,-30.151 -2.148,-60.31 -2.524,-90.473 -1.375,0.009 -2.749,0.028 -4.123,0.033 -39.027,0.17 -78.044,0.34 -117.071,-0.026 0.065,0.077 0.129,0.154 0.172,0.256 2.824,6.667 3.093,15.175 3.024,22.33 -0.079,8.206 -1.184,16.312 -3.074,24.292 -6.7714,28.58826 -24.23705,54.19371 -44.12948,75.36326 l -0.64952,0.68874 c -4.692,4.958 -10.075,9.939 -12.956,16.254 -2.94282,6.448 -3.96427,13.99021 -5.4164,20.91841 l -0.1696,0.79659 -5.678,26.226 c -1.804,8.33 -2.316,20.479 -8.91,26.489 -6.152,5.608 -14.302,2.679 -17.197,-4.541 -2.261,-5.635 -0.009,-11.824 1.33,-17.456 l 10.49113,-44.10003 c 1.72384,-7.19166 3.60746,-14.43052 7.32787,-20.89097 3.811,-6.617 9.398,-11.414 15.099,-16.322 10.795,-9.294 20.705,-19.934 29.086,-31.454 8.378,-11.516 15.538,-24.21 20.559,-37.558 2.514,-6.682 4.574,-13.624 5.995,-20.622 1.351,-6.641 1.339,-13.519 2.784,-20.089 0.099,-0.454 0.482,-0.765 0.921,-0.903 -0.104,-0.293 0.055,-0.689 0.465,-0.715 l 31.91754,-2.05093 c 28.37177,-1.83025 56.74228,-3.70734 85.08846,-5.85207 l 5.009,-0.362 v 0 c -0.389,-40.245 -0.059,-80.498 0.668,-120.758 0.666,-36.919 0.68,-73.848 1.778,-110.762 0.546,-18.321 1.723,-36.599 3.033,-54.882 1.34,-18.698 3.485,-37.238 5.413,-55.88 z M 191.5274,380.641 c -0.34,-2.05 2.239,-3.32 3.428,-1.445 13.591,21.422 20.144,44.691 22.906,69.76 2.44,22.125 1.721,44.569 0.506,66.752 -1.296,23.66 -2.808,47.314 -4.337,70.961 l -2.34913,36.26313 v 0 L 205.7864,713.841 c -0.422,6.503 -1.898,12.416 -7.497,15.439 -0.709,0.592 -1.448,1.123 -2.309,1.583 -3.025,1.617 -7.037,0.8 -8.786,-2.304 l 0.70127,0.46131 c 0.61085,0.38461 -0.0751,-0.15251 -2.05827,-1.60931 l -1.683,-2.178 v 0 c -1.223,-1.838 -2.004,-3.645 -2.318,-5.83 -0.488,-3.395 0.144,-7.119 0.366,-10.531 l 3.864,-59.612 v 0 c 3.005,-46.343 6.514,-92.673 9.159,-139.04 1.232,-21.61 2.095,-43.241 1.511,-64.889 -0.582,-21.528 -1.679,-43.421 -5.209,-64.69 z m 117.57394,-399.05533 0.75406,-0.12657 c 26.995,-4.484 56.349,-3.645 81.02,9.368 0.204,0.107 0.111,0.446 -0.118,0.436 l -7.94089,-0.3171314 C 357.67758,-10.038476 332.61649,-10.621186 307.8984,-4.7149 l -2.53042,0.6095534 C 296.4663,-1.9338565 287.17044,0.72401304 280.0204,6.6031 c -6.834,5.62 -10.237,14.289 -13.509,22.27 l -0.43761,1.053199 c -3.31983,7.882324 -7.52179,15.357865 -14.79839,20.286801 -9.425,6.383 -20.76,5.601 -31.567,6.468 -19.028,1.529 -34.585,15.319 -42.325,32.194 -4.687,10.218 -6.686,21.674 -7.082,32.848 -0.203,5.689 -0.232,11.6 0.526,17.251 0.242,1.807 2.476,8.39 3.615,8.232 2.531,-0.351 4.845,0.969 5.634,2.992 6.252,-6.04 12.684,-11.906 19.323,-17.561 16.549,-14.093 34.374,-26.866 53.146,-37.842 14.327,-8.378 29.439,-16.678 45.088,-22.953 -1.24,-0.026 -2.463,0.22 -3.646,0.835 -0.518,0.271 -1.033,-0.379 -0.624,-0.809 4.929,-5.186 10.833,-5.924 16.785,-4.541 1.27,-0.404 2.541,-0.795 3.817,-1.166 0.635,-0.185 0.951,0.69 0.433,1.028 l -1.462,0.934 v 0 c 6.493,2.175 12.868,6.45 17.915,9.824 14.498,9.689 27.259,21.534 40.195,33.157 l 2.35202,2.1071 c 11.38655,10.1668 23.06317,20.04642 35.99998,28.2029 6.772,4.269 13.885,8.218 21.346,11.155 6.399,2.521 16.818,4.108 19.815,10.871 2.664,3.236 1.551,7.366 -1.569,9.544 -5.262,5.791 -15.788,2.05 -22.058,-0.362 -7.559,-2.908 -14.882,-6.403 -21.866,-10.502 -13.559,-7.96 -26.061,-17.857 -37.707,-28.385 -12.163,-10.996 -23.636,-22.677 -35.466,-34.018 -5.12571,-4.914 -10.13314,-9.943347 -15.26662,-14.85 l -2.57838,-2.442 c -2.62,-2.457 -6.353,-6.287 -10.344,-8.605 -7.519,4.485 -15.154,8.785 -22.605,13.386 -10.401,6.422 -20.496,13.307 -30.435,20.419 -19.134,13.691 -37.266,29.025 -54.099,45.461 -30.872,30.142 -57.174,64.562 -80.151,101.008 l -1.74486,2.7775 c -13.05679,20.86058 -25.404246,42.39397 -34.15914,65.4445 -9.633,25.365 -14.318,52.038 -16.863,78.963 -2.526,26.732 -3.378,53.599 -6.201,80.306 -2.895,27.391 -8.599,54.177 -15.087,80.913 l -1.547359,6.33863 C 34.941431,592.7812 28.88213,616.72569 25.8644,641.2351 c -1.611,13.092 -2.58,26.363 -2.361,39.561 0.22,13.275 2.306,26.256 3.989,39.391 0.645,5.032 -4.307,9.232 -8.738,9.899 -5.096,0.765 -9.474,-2.486 -11.058,-7.22 -4.938,-14.757 -5.835,-31.07 -5.68,-46.559 0.156,-15.725 2.163,-31.347 4.987,-46.801 5.554,-30.398 14.125,-60.167 21.295,-90.201 6.319,-26.472 10.56,-52.99 12.846,-80.109 2.373,-28.136 3.794,-56.366 8.123,-84.299 4.273,-27.576 12.313,-53.916 24.438,-79.061 11.04,-22.894 24.802,-44.443 39.23,-65.33 17.521,-25.363 36.764,-49.498 58.274,-71.488 -1.932,-0.084 -3.916,-0.708 -5.738,-1.844 -5.574,-3.477 -8.17,-10.278 -8.968,-16.488 -1.868,-14.527 -1.417,-29.693 2.319,-43.896 6.027,-22.912 21.669,-43.27 44.339,-51.529 5.835,-2.126 12.038,-2.902 18.222,-3.055 5.868,-0.146 12.277,0.619 17.939,-1.241 9.01235,-2.962424 12.87536,-13.576599 16.25915,-21.622511 L 255.7374,18.9731 c 4.339,-10.253 9.547,-19.041 18.945,-25.443 10.02667,-6.831646 22.58927,-9.93848 34.41894,-11.94443 z M 565.5989,22.1336 c 8.112,-2.814 18.254,-0.26 26.187,2.198 8.838,2.74 17.005,7.786 24.007,13.779 7.387,6.32 13.492,14.124 17.805,22.842 l 0.41236,0.839893 c 3.93945,8.086919 8.42594,19.188836 6.43964,28.073107 -0.057,0.252 -0.122,0.495 -0.196,0.73 16.095,7.923 30.959,17.847 43.903,30.425 15.072,14.645 27.834,31.31 38.634,49.314 42.89376,71.50752 50.44324,157.38739 55.5093,238.9363 l 1.2635,20.67709 c 2.75058,44.64892 5.97006,89.19214 14.3322,133.22461 l 0.61012,3.17893 c 8.93862,46.10248 21.73408,92.55728 20.43788,139.85107 -0.389,14.17 -21.331,14.074 -21.938,0 -2.286,-52.973 -14.648,-104.119 -23.019,-156.264 -14.729,-91.741 -7.349,-186.321 -28.219,-277.143 -8.19,-35.642 -20.877,-70.215 -38.994,-102.03 -8.949,-15.717 -19.188,-30.904 -31.182,-44.463 -10.319,-11.667 -21.044,-22.895 -33.103,-32.703 -3.854,3.86 -11.553,1.893 -13.565,-3.734 -1.382,-3.867 -0.979,-8.388 -1.866,-12.439 -0.823,-3.759 -1.958,-7.486 -3.47,-11.026 -3.014,-7.055 -7.438,-13.83 -12.545,-19.54 -5.517,-6.172 -11.858,-11.3 -18.953,-15.534 -7.144,-4.263 -14.957,-5.536 -22.491,-8.651 -0.254,-0.105 -0.278,-0.445 0,-0.542 z m 31.5163,490.2949 c 0.012,-0.372 0.451,-0.548 0.721,-0.299 2.844,2.617 4.563,6.373 6.656,9.592 2.414,3.712 4.949,7.348 7.607,10.89 5.326,7.096 11.255,13.784 17.231,20.337 5.558,6.094 11.482,11.931 17.627,17.433 6.658,5.963 14.119,11.282 20.168,17.884 12.62179,13.77607 14.66138,32.68349 17.32428,50.43677 l 0.29172,1.92023 c 1.624,10.536 3.079,21.1 4.391,31.679 0.638,5.146 1.274,10.297 1.794,15.456 l 0.15882,1.6345 c 0.46358,5.05068 0.58862,10.17457 -2.31182,14.5875 -3.105,4.721 -10.164,6.376 -14.361,1.849 -7.211,-7.777 -5.859,-21.591 -6.797,-31.596 -0.77486,-8.27314 -1.65404,-16.536 -2.63818,-24.78668 l -0.50082,-4.12432 c -1.16,-9.386 -2.102,-18.959 -4.249,-28.182 -1.893,-8.122 -5.5,-14.252 -11.418,-20.136 -5.962,-5.927 -12.157,-11.46 -17.66,-17.843 -5.837,-6.77 -11.102,-14.029 -15.846,-21.605 -4.05758,-6.48 -7.31009,-13.53171 -10.28982,-20.57525 l -0.49418,-1.17375 c -2.88,-6.869 -7.629,-15.811 -7.404,-23.378 z M 701.2275,217.384 c 0.063,-0.958 1.479,-0.973 1.5,0 0.179,8.24 0.351,16.48 0.522,24.721 1.376,66.402 0.528,132.961 7.19,199.135 3.142,31.201 8.928,61.943 15.623,92.557 3.426,15.665 7.02,31.293 10.435,46.96 3.328,15.269 6.897,30.612 9.537,46.023 2.59421,15.14646 4.91749,30.40955 5.96032,45.75056 l 0.12868,2.00144 c 0.449,7.431 2.592,18.361 -1.5,24.948 -4.434,7.136 -12.923,7.264 -17.674,0.452 -4.461,-6.395 -3.352,-17.771 -4.14,-25.4 -0.801,-7.773 -1.648,-15.552 -2.61,-23.307 -1.877,-15.127 -4.35,-30.22 -6.922,-45.244 -5.357,-31.288 -13.127,-62.182 -18.862,-93.42 -5.878,-32.009 -10.056,-64.247 -10.232,-96.837 -0.175,-32.867 3.304,-65.67 5.06,-98.465 1.784,-33.308 3.812,-66.591 5.984,-99.875 z M 387.5472,10.8503 c 1.783,-6.003 8.075,-9.756 14.213,-8.07 5.625,1.546 10.269,8.373 8.07,14.214 -2.4,6.374 -6.594,11.809 -10.13,17.602 -3.266,5.353 -8.03,9.568 -11.357,14.826 l 3.66622,3.952512 c 1.8343,1.971648 3.67378,3.931488 5.53378,5.857488 l 6.3945,6.62382 c 4.98022,5.14766 9.9918,10.26788 15.1445,15.23718 15.152,14.615 30.544,28.75 47.513,41.266 3.863,2.848 7.756,5.68 11.758,8.332 l 1.49225,0.98887 c 2.74563,1.79765 5.80897,3.56472 9.12575,3.26013 8.0596,-0.74002 15.34173,-9.29927 20.88012,-14.62666 l 0.28988,-0.27734 c 13.725,-13.059 26.434,-27.337 37.545,-42.689 2.467,-3.411 4.856,-6.88 7.182,-10.39 -5.372,-6.275 -4.089,-18.524 -4.385,-26.134 -0.209,-5.351 -0.225,-10.703 -0.254,-16.058 l -0.0146,-1.079836 c -0.0654,-3.465985 -0.22168,-6.790195 2.02763,-9.642164 0.131,-0.165 0.402,-0.16 0.569,-0.073 3.08077,1.614333 4.03007,4.317294 5.34461,7.349211 l 0.13739,0.314789 c 1.6,3.639 3.132,7.312 4.682,10.972 1.623,3.832 3.111,7.72 4.619,11.598 0.702,1.804 1.372,3.615 2.027,5.436 0.399,1.163 0.812,2.32 1.236,3.475 l 0.1,0.089 c 0.56,0.475 1.035,0.977 1.444,1.495 1.719,0.86 3.085,2.427 3.726,4.729 1.395,5.011 -1.492,9.097 -4.067,13.074 -10.46,16.16 -22.384,31.559 -35.638,45.528 -6.584,6.94 -13.509,13.568 -20.719,19.855 l -1.26043,1.0917 c -6.47688,5.56588 -13.50869,10.83822 -22.15857,12.1403 -10.12258,1.52323 -18.36087,-3.51109 -26.1097,-9.3098 l -0.7733,-0.5822 c -7.346,-5.561 -14.544,-11.317 -21.518,-17.338 -14.219,-12.276 -27.746,-25.457 -39.751,-39.918 -11.678,-14.066 -23.221,-29.794 -30.419,-46.719 -0.439,-1.031 0.715,-2.11 1.619,-1.249 3.516,3.347 6.899,6.876 10.242,10.45 0.093,-5.261 -0.878,-10.567 -0.338,-15.861 0.659,-6.435 0.469,-13.544 2.311,-19.74 z"
       id="ðŸ–-Ink"
       fill="#000000" /></g><g
     id="head/mono/Long"
     stroke="none"
     stroke-width="1"
     fill="none"
     fill-rule="evenodd"
     transform="matrix(-1,0,0,1,586.16447,-31.843014)"><path
       d="m 431.9006,270.053 c -3.79,-62.202 -23.974,-132.723 -83.378,-163.263 -130.959,-52.558 -303.143,79.798 -312.259,215.01 -3.178,46.284 22.52,96.859 69.481,109.727 10.441,13.833 26.231,22.281 41.816,29.613 185.627,96.307 305.534,18.02 284.34,-191.087 z"
       id="ðŸŽ¨-Background-5"
       fill="#ffffff" /><path
       d="m 474.1891,231.3601 c -6.56,-18.22 -13.49,-36.3 -20.78,-54.24 -7.1,-17.46 -13.51307,-35.29739 -22.33,-51.93 -52.66,-99.34 -148.42,-99.34 -197.92,-86.36 -25.67,-11.06 -73.75068,-7.940256 -100.48,2.04 -43.272,16.157 -96.021,79.715 -114.056,108.271 -39.819,63.049 -64.669,146.966 -38.219,219.822 3.457,9.522 7.866,18.341 12.83,26.84 -3.127,4.238 -6.726,8.252 -10.713,12.196 -11.848,11.722 -23.696,23.058 -33.931,36.279 -10.171,13.139 -18.603,27.111 -24.88,42.516 -11.836,29.052 -12.406,61.948 3.242,89.669 13.614,24.12 37.731,42.081 64.902,43.794 1.395,0.194 2.792,0.372 4.195,0.513 3.6,5.93 7.99,11.39 13,16.15 15.35,14.6 51.94,22.09 72.81,22.57 1.07,0.86 2.15,1.72 3.23,2.57 12.77,10.05 26.17,20.19 40.83,27.34 9.93,4.85 22.95,8.9 33.31,5.4 4.7,3.14 12.41,2.48 17.07,-0.09 7.66,-4.22 13.89,-11.82 17.68,-19.6 9.19,-18.89 6.98,-39.56 4.62,-59.74 -2.6,-22.29 -5.1,-44.59 -7.64,-66.88 -1.99,-17.43 -4.07,-35.15 -9.37,-51.94 -2.74,-8.7 -6.33,-17.06 -10.97,-24.92 0.12,-0.66 0.1,-1.32 -0.09,-1.94 -1.52,-4.94 -4.66,-7.53 -8.38,-10.89 -0.48,-0.43 -0.96,-0.87 -1.43,-1.32 -1.86,-2.12 -3.85,-4.09 -5.98,-5.76 -0.82,-0.83 -1.63,-1.67 -2.44,-2.51 -6.73,-7.05 -13.09,-14.46 -18.74,-22.4 -5.48,-7.7 -10.43,-15.74 -15.14,-23.93 -4.79,-8.33 -7.96,-17.52 -12.74,-25.79 -0.41,-0.71 -1.45,-0.85 -2.03,-0.26 -1.48,1.53 -2.43,3.23 -2.25,5.02 l -0.74,0.11 c -0.28,-2.7 -2.77,-4.9 -6.15,-4.31 -5.06,0.88 -9.22,1.21 -13.6,-0.47 0.77,-5.11 1.48,-10.23 2.18,-15.36 1.28,-9.44 2.47,-18.91 3.49,-28.38 2.47,0.59 4.92,1.44 7.32,2.52 3.42,1.53 6.65,3.59 9.41,6.12 2.72,2.5 4.6,5.87 7.92,7.61 3.82,1.99 8.43,-1.3 7.31,-5.62 -2.27,-8.73 -15.12,-13.73 -23.07,-15.38 -2.73,-0.57 -5.52,-0.81 -8.31,-0.75 0.63,-6.08 1.19,-12.16 1.65,-18.25 0.22,-2.88 0.42,-5.76 0.61,-8.65 6.18,-1.87 12.8,-2.43 19.23,-1.55 2.12,1.69 4.24,3.36 6.29,5.05 6.51,5.38 12.99,10.79 19.39,16.3 0.58,0.49 1.15,0.98 1.73,1.48 3.8,3.27 8.54,0.03 7.9,-4.6 -5.22,-37.94 18.02,-68.12 45.23,-91.5 30.12,-25.89 84.88,-28.9047 120.7,-73.75 16.4971,3.35759 53.33,13.33 68.53,37.55 21.28,33.94 18.5,64.35 20.12,102.85 1.62,38.53 5.74,78.72 -3.01,116.71 -8.07,35.03 -29.92,64.96 -63.82,78.72 -0.84,0.34 -1.69,0.67 -2.54,0.99 -17.53,6.61 -36.66,8.48 -55.1,5 -20.41,-3.86 -37.45,-13.2 -54.43,-24.69 -0.98,-0.65 -2.41,0.69 -1.67,1.67 22.38,29.66 66.34,39.57 101.21,31.74 1.63,-0.37 3.25,-0.77 4.86,-1.21 -7.8,22.43 -6.23,47.05 3.93,68.89 6.11,13.14 15.43,24.51 26.78,33.48 12.51,9.88 28.03,17.86 36.71,31.73 7.95,12.71 5.59,26.99 -8.02,34.33 -3.43,1.86 -4.75,7.87 -1.35,10.51 1.3,1 2.6,2.02 3.93,3.02 7.62,5.75 28.55,16.55 31.94,16.95 30.1,3.57 50.34,-18.53 63.31,-44.6 15.23,-30.6 11.27,-67.89 -5.51,-97.03 -13.46,-23.38 -39.97,-46.42 -29.43,-76.01 3.76,-10.57 11.45,-19.58 18.92,-27.72 8.52,-9.27 17.68,-17.95 25.85,-27.55 8.12,-9.53 15.32,-19.9 19.34,-31.86 5.87,-17.48 2.95,-36.38 -1.46,-53.83 -9.45,-37.46 -21.72,-74.42 -34.79,-110.75 z"
       id="ðŸ–-Ink-6"
       fill="#000000" /></g><path
     d="m 181.0664,313.46709 c 12.141,12.545 32.409,16.145 48.562,9.417 41.476,-17.329 21.175,-71.379 -10.812,-85.894 -3.996,-0.996 -9.333,-3.359 -14.2,-3.895 -0.44,-0.216 -1.398,0.409 -2.559,-0.182 -35.271,3.938 -43.303,58.69 -20.991,80.554 m 133.778,3.211 c 13.617,18.06099 38.933,23.63299 59.617,15.237 40.862,-16.092 26.369,-64.021 -1.588,-82.811 -59.057,-22.191 -83.444,34.273 -58.029,67.574 m 88.58,-40.018 c 0.038,-0.018 0.076,-0.027 0.115,-0.045 -0.216,-0.095 -0.432,-0.19 -0.647,-0.287 0.07,0.183 0.146,0.364 0.214,0.547 0.106,-0.073 0.199,-0.158 0.318,-0.215 m -250.47,-19.523 c 3.334,0.007 8.15,0.555 10.91,2.868 6.806,-22.953 31.928,-44.196 53.776,-28.706 17.205,5.533 29.972,17.804 37.228,34.118 13.083,-7.782 33.655,-4.459 45,5.832 7.43,-24.551 25.716,-33.148 47.481,-34.417 23.756,-3.891 47.434,19.18 54.822,37.688 6.143,-0.699 15.322,-2.654 21.101,1.137 37.507,-9.836 103.082,-15.259 110.707,-9.794 5.434,2.085 8.416,14.911 0.826,15.603 -6.614,-0.939 0.772,-9.398 -5.895,-10.321 -35.523,-2.202 -70.008,4.952 -105.155,7.954 -3.138,4.221 -13.277,5.633 -18.686,3.937 8.519,31.396 -9.871,52.75599 -37.426,59.15399 -42.667,9.801 -79.788,-28.36699 -68.631,-68.06699 -12.925,-6.43 -27.792,-6.154 -41.872,-2.767 23.528,86.58999 -115.929,82.70499 -94.148,-8.384 -14.495,7.21 -17.643,-4.38 -10.038,-5.835"
     id="ðŸ–-Ink-2"
     fill="#000000"
     style="fill-rule:evenodd;stroke:none;stroke-width:1" /><path
     d="m 349.2499,368.91139 c -0.1053,-11.018 -9.6533,-12.918 -18.7233,-11.449 -15.355,2.484 -30.767,4.232 -46.33,4.547 l -2.682,0.047 v 0 c -0.432,-0.63 -1.154,-1.108 -2.134,-1.213 -8.627,-0.932 -17.44,-0.781 -26.114,-1.037 -7.567,-0.222 -15.343,-0.979 -22.909,-0.385 l -0.60223,0.053 c -9.24718,0.89531 -19.00549,5.61492 -17.88877,16.46701 1.027,10.049 10.633,18.945 18.304,24.529 1.551,1.119 3.137,2.168 4.769,3.124 0.512,0.653 1.259,1.108 2.122,1.201 7.554,4.08 15.889,6.494 24.517,7.298 18.292,1.702 39.557,-0.14 57.126,-8.067 5.712,-2.577 11.04,-5.795 15.75,-9.747 7.263,-6.097 14.876,-15.342 14.7953,-25.368 z m -72.0723,21.847 c 7.333,-0.221 14.654,0.805 21.638,3.067 4.733,1.527 9.047,4.464 13.582,6.505 -15.284,5.829 -33.04,7.1 -48.72,6.039 -6.879,-0.466 -13.548,-2.052 -19.762,-4.78 0.968,-0.699 1.948,-1.41 2.974,-2.029 3.1,-1.877 6.342,-3.474 9.723,-4.745 6.586,-2.471 13.535,-3.835 20.565,-4.057 z m -2.4578,-96.34985 c 1.97841,-1.41998 0.40825,-6.12373 -3.81939,-5.39676 -38.39692,6.597 -18.50205,72.73767 30.52169,36.44243 5.83656,-4.70831 -1.23145,-15.07892 -7.5222,-11.04669 l -2.2336,1.72206 c -7.26216,5.56623 -19.27435,13.98152 -27.88032,4.95138 -8.12354,-11.37928 3.38244,-22.08237 10.93382,-26.67242 z m -25.9942,-50.05785 c -8.16223,-6.96412 -18.3996,-1.83177 -24.40864,5.22181 l -1.05924,1.26105 c -1.20192,1.43898 -2.53312,3.11514 -3.33312,4.90714 -6.659,-5.67 -15.689,-9.66 -24.33,-7.07 -8.38,2.521 -13.159,10.521 -11.72,19.11 1.63279,9.76721 9.02306,16.33206 16.96354,21.40841 l 2.25187,1.42998 c 9.5422,6.08303 18.47126,12.21106 26.32459,20.57261 1.281,1.359 4.05,1.179 4.89,-0.63 l 0.67625,-1.45588 v 0 l 0.68375,-1.45512 c 5.571,-11.879 11.54,-23.68 16.441,-35.839 3.63,-9.011 4.809,-20.481 -3.38,-27.461 z m 93.04304,6.30831 -1.24344,-1.43781 c -5.98,-6.96 -16.11,-11.62 -24.101,-4.87 -8.509,7.19 -6.839,19.08 -3.049,28.25 4.564,11.06 9.89458,21.87609 15.01609,32.7247 l 1.09391,2.3253 c 0.46,0.97 0.91,1.94 1.359,2.91 0.841,1.81 3.62,1.99 4.891,0.63 7.60909,-8.1 16.21818,-14.09339 25.4133,-19.98392 l 2.7757,-1.76608 c 8.071,-5.12 15.701,-11.73 17.361,-21.66 1.42,-8.57 -3.33,-16.62 -11.72,-19.111 -8.66,-2.569 -17.67,1.391 -24.34,7.071 -0.795,-1.8375 -2.16375,-3.56812 -3.45656,-5.08219 z M 330.8267,200.72689 c -2.921,3.792 0.198,9.989 4.463,10.969 5.282,1.215 10.618,0.476 15.804,1.983 4.752,1.381 9.304,4.148 13.377,6.906 4.645,3.144 8.923,6.654 12.854,10.653 2.338,2.379 5.284,8.015 8.89,8.12 3.585,0.105 -1.227,-11.106 -1.625,-12.076 -2.827,-6.905 -6.798,-13.259 -11.765,-18.825 -9.801,-10.983 -30.558,-22.572 -41.998,-7.73 z m -109.45164,-3.03507 -2.44666,0.67967 c -6.054,1.683 -12.517,3.751 -17.711,7.38 l -0.40786,0.28883 -0.62871,0.45991 c -6.52078,4.86125 -15.74345,14.56116 -11.12543,23.02326 0.319,0.583 0.995,0.641 1.539,0.403 6.144,-2.691 10.699,-8.065 17.234,-10.313 l 1.20555,-0.41056 c 6.329,-2.13184 14.15897,-4.37329 20.97145,-4.16944 4.78975,1.55689 11.25888,0.26734 12.50577,-5.56332 l 0.0562,-0.28568 0.108,-0.604 c 0.718,-3.984 -0.35,-9.063 -4.469,-10.983 -5.64375,-2.63025 -11.14969,-1.45994 -16.83134,0.0943 z"
     id="ðŸ–-Ink-5"
     fill="#000000"
     style="fill-rule:evenodd;stroke:none;stroke-width:1" /></svg>
