<?xml version="1.0" encoding="UTF-8" standalone="no"?>
<svg
   version="1.1"
   id="Layer_1"
   x="0px"
   y="0px"
   width="860"
   viewBox="0 0 860 960"
   enable-background="new 0 0 1000 1000"
   xml:space="preserve"
   sodipodi:docname="emsmile.svg"
   height="960"
   inkscape:export-filename="emsmile.svg"
   inkscape:export-xdpi="96"
   inkscape:export-ydpi="96"
   inkscape:version="1.4.2 (2aeb623e1d, 2025-05-12)"
   xmlns:inkscape="http://www.inkscape.org/namespaces/inkscape"
   xmlns:sodipodi="http://sodipodi.sourceforge.net/DTD/sodipodi-0.dtd"
   xmlns="http://www.w3.org/2000/svg"
   xmlns:svg="http://www.w3.org/2000/svg"><defs
   id="defs15"><clipPath
     clipPathUnits="userSpaceOnUse"
     id="clipPath15"><rect
       style="opacity:0.5;fill:#ff8080;stroke:#ff5555;stroke-width:6.61788"
       id="rect16"
       width="858.22424"
       height="961.89941"
       x="73.207191"
       y="13.571109" /></clipPath><clipPath
     clipPathUnits="userSpaceOnUse"
     id="clipPath16"><rect
       style="opacity:0.5;fill:#ff8080;stroke:#ff5555;stroke-width:6.61788"
       id="rect17"
       width="858.22424"
       height="961.89941"
       x="73.207191"
       y="13.571109" /></clipPath><clipPath
     clipPathUnits="userSpaceOnUse"
     id="clipPath17"><rect
       style="opacity:0.5;fill:#ff8080;stroke:#ff5555;stroke-width:6.61788"
       id="rect18"
       width="858.22424"
       height="961.89941"
       x="73.207191"
       y="13.571109" /></clipPath><clipPath
     clipPathUnits="userSpaceOnUse"
     id="clipPath18"><rect
       style="opacity:0.5;fill:#ff8080;stroke:#ff5555;stroke-width:6.61788"
       id="rect19"
       width="858.22424"
       height="961.89941"
       x="73.207191"
       y="13.571109" /></clipPath><clipPath
     clipPathUnits="userSpaceOnUse"
     id="clipPath19"><rect
       style="opacity:0.5;fill:#ff8080;stroke:#ff5555;stroke-width:6.61788"
       id="rect20"
       width="858.22424"
       height="961.89941"
       x="73.207191"
       y="13.571109" /></clipPath><clipPath
     clipPathUnits="userSpaceOnUse"
     id="clipPath20"><rect
       style="opacity:0.5;fill:#ff8080;stroke:#ff5555;stroke-width:6.61788"
       id="rect21"
       width="858.22424"
       height="961.89941"
       x="73.207191"
       y="13.571109" /></clipPath><clipPath
     clipPathUnits="userSpaceOnUse"
     id="clipPath21"><rect
       style="opacity:0.5;fill:#ff8080;stroke:#ff5555;stroke-width:6.61788"
       id="rect22"
       width="858.22424"
       height="961.89941"
       x="73.207191"
       y="13.571109" /></clipPath><clipPath
     clipPathUnits="userSpaceOnUse"
     id="clipPath22"><rect
       style="opacity:0.5;fill:#ff8080;stroke:#ff5555;stroke-width:6.61788"
       id="rect23"
       width="858.22424"
       height="961.89941"
       x="73.207191"
       y="13.571109" /></clipPath><clipPath
     clipPathUnits="userSpaceOnUse"
     id="clipPath23"><rect
       style="opacity:0.5;fill:#ff8080;stroke:#ff5555;stroke-width:6.61788"
       id="rect24"
       width="858.22424"
       height="961.89941"
       x="73.207191"
       y="13.571109" /></clipPath><clipPath
     clipPathUnits="userSpaceOnUse"
     id="clipPath24"><rect
       style="opacity:0.5;fill:#ff8080;stroke:#ff5555;stroke-width:6.61788"
       id="rect25"
       width="858.22424"
       height="961.89941"
       x="73.207191"
       y="13.571109" /></clipPath><clipPath
     clipPathUnits="userSpaceOnUse"
     id="clipPath25"><rect
       style="opacity:0.5;fill:#ff8080;stroke:#ff5555;stroke-width:6.61788"
       id="rect26"
       width="858.22424"
       height="961.89941"
       x="73.207191"
       y="13.571109" /></clipPath><clipPath
     clipPathUnits="userSpaceOnUse"
     id="clipPath26"><rect
       style="opacity:0.5;fill:#ff8080;stroke:#ff5555;stroke-width:6.61788"
       id="rect27"
       width="858.22424"
       height="961.89941"
       x="73.207191"
       y="13.571109" /></clipPath><clipPath
     clipPathUnits="userSpaceOnUse"
     id="clipPath27"><rect
       style="opacity:0.5;fill:#ff8080;stroke:#ff5555;stroke-width:6.61788"
       id="rect28"
       width="858.22424"
       height="961.89941"
       x="73.207191"
       y="13.571109" /></clipPath><clipPath
     clipPathUnits="userSpaceOnUse"
     id="clipPath28"><rect
       style="opacity:0.5;fill:#ff8080;stroke:#ff5555;stroke-width:6.61788"
       id="rect29"
       width="858.22424"
       height="961.89941"
       x="73.207191"
       y="13.571109" /></clipPath><clipPath
     clipPathUnits="userSpaceOnUse"
     id="clipPath29"><rect
       style="opacity:0.5;fill:#ff8080;stroke:#ff5555;stroke-width:6.61788"
       id="rect30"
       width="858.22424"
       height="961.89941"
       x="73.207191"
       y="13.571109" /></clipPath></defs><sodipodi:namedview
   id="namedview15"
   pagecolor="#505050"
   bordercolor="#eeeeee"
   borderopacity="1"
   inkscape:showpageshadow="0"
   inkscape:pageopacity="0"
   inkscape:pagecheckerboard="0"
   inkscape:deskcolor="#505050"
   inkscape:zoom="0.56698015"
   inkscape:cx="397.72115"
   inkscape:cy="498.25377"
   inkscape:window-width="1532"
   inkscape:window-height="1041"
   inkscape:window-x="384"
   inkscape:window-y="0"
   inkscape:window-maximized="1"
   inkscape:current-layer="Layer_1" />














<g
   id="g30"
   transform="translate(-72.312937,-12.346111)"><path
     fill="#ffffff"
     opacity="1"
     stroke="none"
     d="m 534,1001 c -178,0 -355.5,0 -533,0 C 1,667.66669 1,334.33334 1,1 c 333.33334,0 666.66669,0 1000,0 0,333.33334 0,666.66669 0,1000 -155.5,0 -311,0 -467,0 M 823.46161,574.96631 c 16.5448,-15.08417 27.92425,-33.67066 36.52417,-54.3064 0.66797,0.8783 0.85284,1.60742 1.01062,2.34241 0.172,0.80096 0.25482,1.62622 0.48584,2.40863 6.63763,22.48303 8.90491,45.27563 4.54779,68.46539 -5.17066,27.51941 -18.39508,49.94385 -42.0622,65.64868 -17.81054,11.81842 -37.63305,18.89441 -58.28009,23.35791 -27.22979,5.88666 -54.73632,10.48853 -81.98565,16.29187 -11.45148,2.43879 -22.87818,5.72004 -33.7284,10.08082 -15.20215,6.1098 -24.58062,17.63421 -25.11291,34.5888 -0.29645,9.44049 0.11078,19.00592 1.33539,28.36664 1.71985,13.14587 4.26947,26.19977 6.92291,39.19934 1.15527,5.65979 4.87463,8.448 9.99634,7.70831 7.49798,-1.08288 15.37237,-1.77148 22.23748,-4.65161 34.54859,-14.4942 68.46229,-30.36603 100.63221,-49.72272 2.24328,-1.34973 4.67077,-2.42022 7.08239,-3.45861 10.32447,-4.4455 21.06128,-8.10395 30.9502,-13.36133 45.69049,-24.29102 78.914,-60.52417 99.58325,-107.80573 16.46863,-37.67254 21.07941,-77.68078 19.71515,-118.42505 -1.05341,-31.4591 -2.73138,-62.89874 -4.30127,-94.33856 -1.56793,-31.40024 -4.05475,-62.70138 -9.95459,-93.66095 C 900.88275,290.78226 887.68085,249.69966 865.64423,211.74211 853.3714,190.60234 839.3725,170.73173 820.18897,155.28249 796.13159,135.90823 768.94952,124.85438 737.12671,127.0876 726.13068,101.27793 705.71796,84.627617 682.41009,70.895729 673.83765,65.845261 665.16992,60.910938 656.28204,56.448883 610.10394,33.265774 561.61438,19.119062 509.47009,20.181871 c -24.97885,0.509119 -49.70352,3.542263 -74.17935,8.72004 -66.11502,13.986398 -128.10083,38.310911 -185.34949,74.283309 -49.00403,30.79183 -88.44975,70.61281 -114.42105,122.9643 -32.80414,66.12483 -46.697347,137.04832 -53.420026,209.77962 -2.550697,27.5954 -2.379532,55.19604 0.822906,82.78143 3.267441,28.1452 9.14573,55.6391 20.75269,81.56726 27.64532,61.75556 69.40168,112.15509 123.41212,152.73352 32.47696,24.40021 67.24704,45.22504 101.65744,66.6322 32.01425,19.91639 64.58301,39.00922 94.31751,62.34742 12.45483,9.77563 24.37924,20.1723 32.11389,34.44592 6.51715,12.02686 6.25082,23.72687 -1.20795,35.23541 -3.75992,5.80133 -3.89706,10.32953 -0.48007,14.18183 3.31882,3.74151 8.57394,4.71154 14.22143,1.78845 26.60575,-13.77112 50.43561,-31.01465 67.79023,-55.96985 7.99023,-11.48956 12.14813,-24.92664 18.3009,-37.30383 11.38006,-22.89234 15.5,-46.40558 12.1402,-71.47736 -2.35492,-17.573 -7.23554,-34.28131 -16.44123,-49.65289 -11.33203,-18.92212 -28.31891,-31.31958 -47.83203,-39.9151 -11.52682,-5.07752 -24.22064,-9.26184 -36.64822,-10.12506 -18.4407,-1.28095 -36.78314,-2.63221 -54.87149,-6.318 -30.57181,-6.22937 -58.6991,-16.89221 -77.20776,-44.31756 -8.90079,-13.18878 -18.24051,-26.08374 -27.02286,-39.34918 -4.47681,-6.76215 -7.94593,-14.18451 -12.27155,-21.05603 -3.4772,-5.52375 -8.60885,-7.0965 -14.25918,-4.36701 -12.71778,6.14337 -26.25168,9.33508 -40.11078,10.85614 -21.96941,2.41107 -48.6791,-6.44836 -57.57097,-34.80286 -7.74333,-24.69207 -4.82425,-48.26501 6.80243,-70.83114 10.79875,-20.95917 27.6709,-34.07209 51.69119,-36.65598 18.67125,-2.00851 41.34792,9.24265 45.94859,27.3465 1.25635,4.94366 4.83676,6.7171 9.89475,6.35577 4.08539,-0.29181 8.20291,-0.18661 12.30575,-0.16647 3.81266,0.0187 7.65845,0.52274 11.43048,0.17361 10.21558,-0.94558 20.39966,-2.23086 30.7703,-3.40106 0.47589,1.5817 0.85388,2.83176 1.22815,4.08289 4.41177,14.74853 8.31192,29.67438 13.34894,44.20618 8.47119,24.43951 21.42212,46.03784 42.71582,61.695 32.8009,24.11841 70.09359,27.52112 108.81714,22.69818 30.54321,-3.80414 55.31665,-18.487 74.75824,-42.35571 17.95532,-22.04395 30.3742,-46.61566 34.61962,-74.9267 1.22388,-8.16134 1.74408,-16.42822 2.64331,-25.19708 8.68287,0 17.43201,0 26.0824,0 1.42072,10.2948 2.435,20.72989 4.36695,30.99225 3.84808,20.44098 9.39691,40.45825 21.03588,57.9964 17.55268,26.44916 41.56061,42.24652 74.31702,39.78723 26.07617,-1.95776 48.79242,-12.97516 68.97925,-30.67755 m -194.4643,58.02246 c 14.03199,1.15942 35.69764,-13.58008 39.57593,-27.04053 1.08197,-3.755 0.57227,-7.32947 -2.74182,-9.92083 -3.27576,-2.56141 -6.88641,-2.59693 -10.19464,-0.305 -2.28259,1.58136 -4.17352,3.75287 -6.14264,5.7558 -2.79449,2.84235 -5.28156,6.02582 -8.28729,8.61371 -7.02136,6.04529 -9.67267,5.64557 -16.37177,-0.77051 -3.30719,-3.16748 -7.02221,-6.04724 -10.95318,-8.38318 -3.33252,-1.98028 -6.90869,-0.9057 -9.48322,1.98493 -2.62146,2.94329 -2.99554,6.73047 -0.66955,9.69146 6.64984,8.46521 13.10754,17.34638 25.26818,20.37415 M 233.7832,509.69492 c -2.64152,-1.71866 -5.16937,-3.65479 -7.94961,-5.10813 -4.92586,-2.57498 -9.54106,-1.69668 -12.07195,1.96042 -2.57782,3.72495 -1.70555,8.19669 2.51756,11.93442 7.47968,6.61993 14.95307,13.25177 22.60294,19.67151 2.10336,1.76513 4.68245,3.23578 7.29007,4.07055 5.27098,1.68738 10.28833,-1.85449 9.5831,-7.27966 -0.47461,-3.65106 -2.34782,-7.72101 -4.88135,-10.37671 -5.02971,-5.27215 -10.94797,-9.69659 -17.09076,-14.8724 m 15.9108,67.1365 c 4.59697,2.67017 9.31631,2.52893 12.61469,-1.51544 2.6239,-3.21735 4.45279,-7.36286 5.64654,-11.38934 1.23871,-4.17774 -0.58209,-7.87476 -4.66907,-9.92658 -4.21585,-2.11658 -7.67894,-0.7453 -10.54678,2.69702 -1.48488,1.78235 -3.08446,3.48059 -4.44563,5.35254 -3.68634,5.06946 -3.39806,9.4209 1.40025,14.7818 z"
     id="path1"
     clip-path="url(#clipPath29)" /><path
     fill="#010101"
     opacity="1"
     stroke="none"
     d="m 823.20288,575.20929 c -19.9281,17.45941 -42.64435,28.47681 -68.72052,30.43457 -32.75641,2.45929 -56.76434,-13.33807 -74.31702,-39.78723 -11.63897,-17.53815 -17.1878,-37.55542 -21.03588,-57.9964 -1.93195,-10.26236 -2.94623,-20.69745 -4.36695,-30.99225 -8.65039,0 -17.39953,0 -26.0824,0 -0.89923,8.76886 -1.41943,17.03574 -2.64331,25.19708 -4.24542,28.31104 -16.6643,52.88275 -34.61962,74.9267 -19.44159,23.86871 -44.21503,38.55157 -74.75824,42.35571 -38.72355,4.82294 -76.01624,1.42023 -108.81714,-22.69818 -21.2937,-15.65716 -34.24463,-37.25549 -42.71582,-61.695 -5.03702,-14.5318 -8.93717,-29.45765 -13.34894,-44.20618 -0.37427,-1.25113 -0.75226,-2.50119 -1.22815,-4.08289 -10.37064,1.1702 -20.55472,2.45548 -30.7703,3.40106 -3.77203,0.34913 -7.61782,-0.1549 -11.43048,-0.17361 -4.10284,-0.0201 -8.22036,-0.12534 -12.30575,0.16647 -5.05799,0.36133 -8.6384,-1.41211 -9.89475,-6.35577 -4.60067,-18.10385 -27.27734,-29.35501 -45.94859,-27.3465 -24.02029,2.58389 -40.89244,15.69681 -51.69119,36.65598 -11.62668,22.56613 -14.54576,46.13907 -6.80243,70.83114 8.89187,28.3545 35.60156,37.21393 57.57097,34.80286 13.8591,-1.52106 27.393,-4.71277 40.11078,-10.85614 5.65033,-2.72949 10.78198,-1.15674 14.25918,4.36701 4.32562,6.87152 7.79474,14.29388 12.27155,21.05603 8.78235,13.26544 18.12207,26.1604 27.02286,39.34918 18.50866,27.42535 46.63595,38.08819 77.20776,44.31756 18.08835,3.68579 36.43079,5.03705 54.87149,6.318 12.42758,0.86322 25.1214,5.04754 36.64822,10.12506 19.51312,8.59552 36.5,20.99298 47.83203,39.9151 9.20569,15.37158 14.08631,32.07989 16.44123,49.65289 3.3598,25.07178 -0.76014,48.58502 -12.1402,71.47736 -6.15277,12.37719 -10.31067,25.81427 -18.3009,37.30383 -17.35462,24.9552 -41.18448,42.19873 -67.79023,55.96985 -5.64749,2.92309 -10.90261,1.95306 -14.22143,-1.78845 -3.41699,-3.8523 -3.27985,-8.3805 0.48007,-14.18183 7.45877,-11.50854 7.7251,-23.20855 1.20795,-35.23541 -7.73465,-14.27362 -19.65906,-24.67029 -32.11389,-34.44592 -29.7345,-23.3382 -62.30326,-42.43103 -94.31751,-62.34742 -34.4104,-21.40716 -69.18048,-42.23199 -101.65744,-66.6322 C 173.07745,712.43292 131.32109,662.03339 103.67577,600.27783 92.06881,574.34967 86.190521,546.85577 82.92308,518.71057 79.720642,491.12518 79.549477,463.52454 82.100174,435.92914 88.822853,363.19784 102.71606,292.27435 135.5202,226.14952 c 25.9713,-52.35149 65.41702,-92.17247 114.42105,-122.9643 57.24866,-35.972398 119.23447,-60.296911 185.34949,-74.283309 24.47583,-5.177777 49.2005,-8.210921 74.17935,-8.72004 52.14429,-1.062809 100.63385,13.083903 146.81195,36.267012 8.88788,4.462055 17.55561,9.396378 26.12805,14.446846 23.30787,13.731888 43.72059,30.382201 54.71662,56.191871 31.82281,-2.23322 59.00488,8.82063 83.06226,28.19489 19.18353,15.44924 33.18243,35.31985 45.45526,56.45962 22.03662,37.95755 35.23852,79.04015 43.41601,121.95204 5.89984,30.95957 8.38666,62.26071 9.95459,93.66095 1.56989,31.43982 3.24786,62.87946 4.30127,94.33856 1.36426,40.74427 -3.24652,80.75251 -19.71515,118.42505 -20.66925,47.28156 -53.89276,83.51471 -99.58325,107.80573 -9.88892,5.25738 -20.62573,8.91583 -30.9502,13.36133 -2.41162,1.03839 -4.83911,2.10888 -7.08239,3.45861 -32.16992,19.35669 -66.08362,35.22852 -100.63221,49.72272 -6.86511,2.88013 -14.7395,3.56873 -22.23748,4.65161 -5.12171,0.73969 -8.84107,-2.04852 -9.99634,-7.70831 -2.65344,-12.99957 -5.20306,-26.05347 -6.92291,-39.19934 -1.22461,-9.36072 -1.63184,-18.92615 -1.33539,-28.36664 0.53229,-16.95459 9.91076,-28.479 25.11291,-34.5888 10.85022,-4.36078 22.27692,-7.64203 33.7284,-10.08082 27.24933,-5.80334 54.75586,-10.40521 81.98565,-16.29187 20.64704,-4.4635 40.46955,-11.53949 58.28009,-23.35791 23.66712,-15.70483 36.89154,-38.12927 42.0622,-65.64868 4.35712,-23.18976 2.08984,-45.98236 -4.54779,-68.46539 -0.23102,-0.78241 -0.31384,-1.60767 -0.48584,-2.40863 -0.15778,-0.73499 -0.34265,-1.46411 -1.01062,-2.34241 -8.59992,20.63574 -19.97937,39.22223 -36.7829,54.54938 M 663.42731,422.96103 c 5.78686,-11.28809 13.87182,-20.27887 25.57818,-25.67954 10.38654,-4.79171 20.526,-10.22223 31.18488,-14.29736 17.77643,-6.79632 36.05536,-11.93155 55.42346,-10.8941 17.8584,0.9566 35.37347,3.95501 52.4635,9.31707 4.41767,1.38599 8.88171,2.62403 14.12677,4.1659 -0.90082,-13.58417 -1.72784,-26.49964 -2.66925,-39.40677 -0.075,-1.02722 -0.75781,-2.15878 -1.47028,-2.96655 -4.33196,-4.91172 -9.36694,-9.32383 -13.03594,-14.67792 -12.83204,-18.7258 -26.59137,-36.70514 -43.04206,-52.35172 -23.66644,-22.50964 -51.96948,-37.74734 -81.90918,-50.11474 -5.07696,-2.09714 -11.03894,-2.36595 -15.74219,-4.99806 -19.01507,-10.64159 -39.12542,-14.10027 -60.53393,-10.94574 -28.51624,4.20185 -55.80627,12.41285 -82.09424,24.28149 -76.89084,34.71516 -129.24106,94.72923 -171.80862,166.51668 4.23129,-2.32556 7.47751,-4.56146 11.04614,-5.99408 16.78158,-6.73691 33.42834,-13.91669 50.547,-19.67963 21.15036,-7.12021 43.17135,-10.27386 65.48584,-8.43771 26.59628,2.18854 52.94229,6.35663 77.89926,16.36163 9.47473,3.79831 19.19323,7.83972 27.40875,13.71622 10.73883,7.6814 19.3606,17.71832 21.30969,31.83133 1.60779,11.64068 3.52381,23.2388 5.38977,35.42041 8.21503,0 16.95771,0 25.77448,0 1.62396,-13.76196 0.45257,-28.0777 8.66797,-41.16681 m -51.35822,28.55951 c -1.22204,-6.70557 -2.76837,-13.37198 -3.58386,-20.12662 -1.01318,-8.392 -5.8587,-14.41278 -11.69812,-19.62305 -14.48724,-12.92624 -31.57794,-21.57168 -50.5791,-24.39346 -20.34412,-3.02124 -41.03427,-4.62726 -61.60013,-4.91034 -13.1525,-0.18103 -26.59943,2.12305 -39.46762,5.18839 -14.64179,3.48773 -28.98157,8.54986 -43.0788,13.91067 -9.57022,3.63934 -19.88962,6.82974 -25.50781,16.88892 -0.9122,1.63324 -3.19409,2.44244 -4.42068,3.97125 -2.65043,3.30341 -6.57956,6.56369 -7.21418,10.31088 -1.67358,9.88272 -4.10641,20.46347 -2.20669,29.96012 4.56939,22.84262 10.39917,45.56643 17.64938,67.70651 9.54221,29.13934 27.2273,52.18585 56.25827,64.90588 22.87802,10.02411 47.01334,11.40949 71.35672,9.32105 20.84531,-1.78827 40.2446,-8.34247 56.34634,-22.42328 17.96546,-15.71057 31.2121,-34.78442 39.80426,-57.06946 9.07258,-23.53073 9.76813,-47.98163 7.94202,-73.61746 m 228.8468,-51.42548 c -4.87121,-1.51535 -9.7572,-2.98489 -14.61096,-4.55414 -19.15198,-6.19162 -38.78656,-10.14801 -58.90301,-8.97836 -27.14417,1.57831 -52.21216,10.72241 -75.76697,23.98105 -11.27069,6.34408 -16.56262,17.00949 -18.57245,29.27557 -3.67041,22.40042 -2.617,44.76627 1.96185,66.92697 4.00397,19.37806 9.27332,38.41877 21.28418,54.63209 14.36548,19.39196 33.23456,30.74163 58.02527,28.40747 20.80542,-1.95899 39.30768,-10.45649 55.32575,-23.86652 21.29193,-17.82513 33.24304,-41.39435 40.24121,-67.73514 0.85888,-3.23282 0.79474,-7.35977 -0.46369,-10.40131 -8.39306,-20.28619 -8.44714,-41.74914 -9.32824,-63.0664 -0.32581,-7.88214 0.56201,-15.81445 0.80706,-24.62128 m -516.91195,69.39395 c -2.22687,2.62662 -4.45374,5.25324 -7.01709,8.27674 10.70385,-1.05628 20.81445,-2.05405 31.31775,-3.09055 -4.70191,-14.18405 2.34017,-27.60705 1.68777,-41.61703 -8.69452,12.23532 -17.10425,24.06985 -25.98843,36.43084 z"
     id="path2"
     clip-path="url(#clipPath28)" /><path
     fill="#040404"
     opacity="1"
     stroke="none"
     d="m 628.565,632.94916 c -11.72833,-2.98816 -18.18603,-11.86933 -24.83587,-20.33454 -2.32599,-2.96099 -1.95191,-6.74817 0.66955,-9.69146 2.57453,-2.89063 6.1507,-3.96521 9.48322,-1.98493 3.93097,2.33594 7.64599,5.2157 10.95318,8.38318 6.6991,6.41608 9.35041,6.8158 16.37177,0.77051 3.00573,-2.58789 5.4928,-5.77136 8.28729,-8.61371 1.96912,-2.00293 3.86005,-4.17444 6.14264,-5.7558 3.30823,-2.29193 6.91888,-2.25641 10.19464,0.305 3.31409,2.59136 3.82379,6.16583 2.74182,9.92083 -3.87829,13.46045 -25.54394,28.19995 -40.00824,27.00092 z"
     id="path3"
     clip-path="url(#clipPath27)" /><path
     fill="#050505"
     opacity="1"
     stroke="none"
     d="m 234.07907,509.89545 c 5.84692,4.97528 11.76518,9.39972 16.79489,14.67187 2.53353,2.6557 4.40674,6.72565 4.88135,10.37671 0.70523,5.42517 -4.31212,8.96704 -9.5831,7.27966 -2.60762,-0.83477 -5.18671,-2.30542 -7.29007,-4.07055 -7.64987,-6.41974 -15.12326,-13.05158 -22.60294,-19.67151 -4.22311,-3.73773 -5.09538,-8.20947 -2.51756,-11.93442 2.53089,-3.6571 7.14609,-4.5354 12.07195,-1.96042 2.78024,1.45334 5.30809,3.38947 8.24548,5.30866 z"
     id="path4"
     clip-path="url(#clipPath26)" /><path
     fill="#060606"
     opacity="1"
     stroke="none"
     d="m 249.39574,576.59705 c -4.50005,-5.12653 -4.78833,-9.47797 -1.10199,-14.54743 1.36117,-1.87195 2.96075,-3.57019 4.44563,-5.35254 2.86784,-3.44232 6.33093,-4.8136 10.54678,-2.69702 4.08698,2.05182 5.90778,5.74884 4.66907,9.92658 -1.19375,4.02648 -3.02264,8.17199 -5.64654,11.38934 -3.29838,4.04437 -8.01772,4.18561 -12.91295,1.28107 z"
     id="path5"
     clip-path="url(#clipPath25)" /><path
     fill="#fefefe"
     opacity="1"
     stroke="none"
     d="m 663.22498,423.27139 c -8.01307,12.77875 -6.84168,27.09449 -8.46564,40.85645 -8.81677,0 -17.55945,0 -25.77448,0 -1.86596,-12.18161 -3.78198,-23.77973 -5.38977,-35.42041 -1.94909,-14.11301 -10.57086,-24.14993 -21.30969,-31.83133 -8.21552,-5.8765 -17.93402,-9.91791 -27.40875,-13.71622 -24.95697,-10.005 -51.30298,-14.17309 -77.89926,-16.36163 -22.31449,-1.83615 -44.33548,1.3175 -65.48584,8.43771 -17.11866,5.76294 -33.76542,12.94272 -50.547,19.67963 -3.56863,1.43262 -6.81485,3.66852 -11.04614,5.99408 42.56756,-71.78745 94.91778,-131.80152 171.80862,-166.51668 26.28797,-11.86864 53.578,-20.07964 82.09424,-24.28149 21.40851,-3.15453 41.51886,0.30415 60.53393,10.94574 4.70325,2.63211 10.66523,2.90092 15.74219,4.99806 29.9397,12.3674 58.24274,27.6051 81.90918,50.11474 16.45069,15.64658 30.21002,33.62592 43.04206,52.35172 3.669,5.35409 8.70398,9.7662 13.03594,14.67792 0.71247,0.80777 1.39533,1.93933 1.47028,2.96655 0.94141,12.90713 1.76843,25.8226 2.66925,39.40677 -5.24506,-1.54187 -9.7091,-2.77991 -14.12677,-4.1659 -17.09003,-5.36206 -34.6051,-8.36047 -52.4635,-9.31707 -19.3681,-1.03745 -37.64703,4.09778 -55.42346,10.8941 -10.65888,4.07513 -20.79834,9.50565 -31.18488,14.29736 -11.70636,5.40067 -19.79132,14.39145 -25.78051,25.9899 m 108.63903,-92.59042 c -6.41961,-0.78244 -12.83386,-2.13947 -19.26025,-2.19955 -7.7627,-0.0726 -15.76868,0.19689 -22.18903,5.70385 -3.79516,3.25528 -4.70929,7.92896 -2.56402,11.65302 2.21161,3.83923 6.17029,4.58795 11.34576,3.51333 5.44415,-1.13043 11.18915,-2.15234 16.6388,-1.60122 8.18304,0.82745 16.24481,2.96905 24.31726,4.73819 6.10955,1.33899 10.95123,-0.43338 12.65167,-4.97007 1.69183,-4.5137 -0.5094,-9.87555 -5.93268,-12.26821 -4.49499,-1.98307 -9.44238,-2.94059 -15.00751,-4.56934 M 497.2738,346.66141 c -2.22702,-1.87628 -4.16305,-4.46775 -6.72876,-5.51172 -15.59283,-6.34451 -29.74762,-1.66522 -43.29312,6.39444 -1.09091,0.64905 -2.38412,1.79678 -2.60553,2.90765 -0.60895,3.05594 -1.85528,6.8161 -0.64291,9.15286 1.05804,2.03937 5.10141,3.41474 7.85629,3.46671 3.50513,0.0661 7.13239,-1.23218 10.54514,-2.41083 7.88885,-2.72461 15.48855,-4.7427 24.08651,-1.9201 7.59653,2.49383 12.59336,-3.16773 10.78238,-12.07901 z"
     id="path6"
     clip-path="url(#clipPath24)" /><path
     fill="#fefefe"
     opacity="1"
     stroke="none"
     d="m 612.09534,451.97702 c 1.79986,25.17935 1.10431,49.63025 -7.96827,73.16098 -8.59216,22.28504 -21.8388,41.35889 -39.80426,57.06946 -16.10174,14.08081 -35.50103,20.63501 -56.34634,22.42328 -24.34338,2.08844 -48.4787,0.70306 -71.35672,-9.32105 -29.03097,-12.72003 -46.71606,-35.76654 -56.25827,-64.90588 -7.25021,-22.14008 -13.07999,-44.86389 -17.64938,-67.70651 -1.89972,-9.49665 0.53311,-20.0774 2.20669,-29.96012 0.63462,-3.74719 4.56375,-7.00747 7.21418,-10.31088 1.22659,-1.52881 3.50848,-2.33801 4.42068,-3.97125 5.61819,-10.05918 15.93759,-13.24958 25.50781,-16.88892 14.09723,-5.36081 28.43701,-10.42294 43.0788,-13.91067 12.86819,-3.06534 26.31512,-5.36942 39.46762,-5.18839 20.56586,0.28308 41.25601,1.8891 61.60013,4.91034 19.00116,2.82178 36.09186,11.46722 50.5791,24.39346 5.83942,5.21027 10.68494,11.23105 11.69812,19.62305 0.81549,6.75464 2.36182,13.42105 3.61011,20.5831 m -68.51966,45.9378 c -1.64398,-18.44494 -8.59454,-34.85882 -23.94543,-45.22531 -18.39932,-12.42517 -29.06552,-15.25363 -45.54328,-1.7037 -16.47851,13.55054 -26.36379,31.34747 -27.80645,52.67215 -2.24301,33.15558 23.69461,54.92883 51.44555,50.77246 28.29859,-4.23828 46.46924,-26.92853 45.84961,-56.5156 m -15.75494,-72.30459 c -4.30811,-1.5007 -8.61621,-3.0014 -13.19452,-4.59625 0.77667,-1.58689 1.64838,-2.836 2.01746,-4.21921 1.2265,-4.59757 2.9497,-9.21658 3.1336,-13.88055 0.11029,-2.80012 0.17688,-7.14118 -3.23297,-8.57566 -5.44183,-2.28934 -12.01852,1.31882 -14.08243,7.10968 -0.60916,1.70926 -0.91796,3.52307 -1.46118,5.2587 -2.47183,7.89801 -7.61685,11.74774 -15.7811,12.31799 -3.61279,0.25238 -7.28161,0.77085 -10.75653,1.76032 -27.38916,7.79895 -47.38302,25.26663 -62.82538,48.54764 -4.73812,7.14328 -7.10974,15.07382 -6.59634,23.65869 0.45874,7.67196 0.8331,15.4114 2.27225,22.92425 0.43185,2.25434 4.31149,3.84833 6.61166,5.74488 1.37412,-1.80042 3.57382,-3.43323 3.97925,-5.43036 1.74472,-8.59458 2.01556,-17.58316 4.53918,-25.90808 10.04203,-33.12604 51.71009,-58.36191 85.56406,-52.10642 9.89185,1.82779 19.89337,3.79349 26.29486,13.2572 1.11414,1.64701 5.27033,2.39466 7.52399,1.76819 2.02551,-0.56302 4.39966,-3.41788 4.7489,-5.56598 0.43561,-2.67969 -0.48547,-5.96698 -1.80798,-8.47043 -3.4903,-6.60699 -9.50891,-10.45861 -16.94678,-13.5946 z"
     id="path7"
     clip-path="url(#clipPath23)" /><path
     fill="#fdfdfd"
     opacity="1"
     stroke="none"
     d="m 840.96051,400.54376 c -0.28967,8.35813 -1.17749,16.29044 -0.85168,24.17258 0.8811,21.31726 0.93518,42.78021 9.32824,63.0664 1.25843,3.04154 1.32257,7.16849 0.46369,10.40131 -6.99817,26.34079 -18.94928,49.91001 -40.24121,67.73514 -16.01807,13.41003 -34.52033,21.90753 -55.32575,23.86652 -24.79071,2.33416 -43.65979,-9.01551 -58.02527,-28.40747 -12.01086,-16.21332 -17.28021,-35.25403 -21.28418,-54.63209 -4.57885,-22.1607 -5.63226,-44.52655 -1.96185,-66.92697 2.00983,-12.26608 7.30176,-22.93149 18.57245,-29.27557 23.55481,-13.25864 48.6228,-22.40274 75.76697,-23.98105 20.11645,-1.16965 39.75103,2.78674 58.90301,8.97836 4.85376,1.56925 9.73975,3.03879 14.65558,5.00284 m -124.89044,132.81 c 7.20294,10.06372 17.70581,15.88422 29.31824,16.21228 18.11584,0.5116 37.52935,-15.29663 43.6253,-32.72168 4.44428,-12.7037 4.0401,-25.74606 3.1593,-38.90125 -2.31842,-34.62615 -38.05371,-42.76586 -58.4555,-28.25372 -30.0351,21.3645 -33.87677,52.18463 -17.64734,83.66437 M 795.8855,430.31201 c -0.8147,-0.55697 -1.6294,-1.11398 -2.42761,-1.6597 1.00451,-2.23553 1.96807,-4.31509 2.8778,-6.4179 2.08954,-4.83027 2.57373,-9.65079 -0.49664,-14.26996 -2.23755,-3.36624 -5.45953,-6.44477 -9.41522,-4.77219 -2.41193,1.01975 -4.05377,4.65598 -5.29657,7.44849 -1.6305,3.66366 -2.52692,7.65396 -3.73602,11.49417 -14.99836,-3.2974 -29.1001,-4.72067 -43.16669,-0.0644 -10.29108,3.40661 -19.43494,8.64074 -26.27771,17.23077 -3.4018,4.27029 -3.36536,8.34506 -0.46222,11.29166 2.88654,2.92975 6.54938,2.58413 10.81628,-0.18671 6.19641,-4.02377 12.29578,-8.58542 19.0965,-11.20288 11.40839,-4.39084 23.31396,-2.64584 34.7525,0.67541 21.16407,6.14515 29.94611,18.11091 31.04755,36.41535 0.35901,5.96618 0.97461,11.94217 1.95984,17.83224 0.36407,2.17633 2.12836,4.11844 3.25403,6.16736 2.02752,-1.22503 4.49072,-2.07226 5.9674,-3.77502 1.67328,-1.92945 2.69409,-4.54038 3.59998,-7.00168 7.94794,-21.59427 -0.80353,-45.40314 -22.0932,-59.20505 z"
     id="path8"
     clip-path="url(#clipPath22)"
     inkscape:label="path8" /><path
     fill="#f9f9f9"
     opacity="1"
     stroke="none"
     d="m 324.24118,469.22577 c 8.64694,-12.09775 17.05667,-23.93228 25.75119,-36.1676 0.6524,14.00998 -6.38968,27.43298 -1.68777,41.61703 -10.5033,1.0365 -20.6139,2.03427 -31.31775,3.09055 2.56335,-3.0235 4.79022,-5.65012 7.25433,-8.53998 z"
     id="path9"
     clip-path="url(#clipPath21)" /><path
     fill="#050505"
     opacity="1"
     stroke="none"
     d="m 772.27307,330.7894 c 5.15607,1.52032 10.10346,2.47784 14.59845,4.46091 5.42328,2.39266 7.62451,7.75451 5.93268,12.26821 -1.70044,4.53669 -6.54212,6.30906 -12.65167,4.97007 -8.07245,-1.76914 -16.13422,-3.91074 -24.31726,-4.73819 -5.44965,-0.55112 -11.19465,0.47079 -16.6388,1.60122 -5.17547,1.07462 -9.13415,0.3259 -11.34576,-3.51333 -2.14527,-3.72406 -1.23114,-8.39774 2.56402,-11.65302 6.42035,-5.50696 14.42633,-5.77646 22.18903,-5.70385 6.42639,0.0601 12.84064,1.41711 19.66931,2.30798 z"
     id="path10"
     clip-path="url(#clipPath20)" /><path
     fill="#050505"
     opacity="1"
     stroke="none"
     d="m 497.43524,347.02142 c 1.64954,8.55127 -3.34729,14.21283 -10.94382,11.719 -8.59796,-2.8226 -16.19766,-0.80451 -24.08651,1.9201 -3.41275,1.17865 -7.04001,2.47693 -10.54514,2.41083 -2.75488,-0.052 -6.79825,-1.42734 -7.85629,-3.46671 -1.21237,-2.33676 0.034,-6.09692 0.64291,-9.15286 0.22141,-1.11087 1.51462,-2.2586 2.60553,-2.90765 13.5455,-8.05966 27.70029,-12.73895 43.29312,-6.39444 2.56571,1.04397 4.50174,3.63544 6.8902,5.87173 z"
     id="path11"
     clip-path="url(#clipPath19)" /><path
     fill="#010101"
     opacity="1"
     stroke="none"
     d="m 543.6214,498.35553 c 0.57391,29.14636 -17.59674,51.83661 -45.89533,56.07489 -27.75094,4.15637 -53.68856,-17.61688 -51.44555,-50.77246 1.44266,-21.32468 11.32794,-39.12161 27.80645,-52.67215 16.47776,-13.54993 27.14396,-10.72147 45.54328,1.7037 15.35089,10.36649 22.30145,26.78037 23.99115,45.66602 z"
     id="path12"
     clip-path="url(#clipPath18)" /><path
     fill="#040404"
     opacity="1"
     stroke="none"
     d="m 528.16608,425.77963 c 7.09253,2.96659 13.11114,6.81821 16.60144,13.4252 1.32251,2.50345 2.24359,5.79074 1.80798,8.47043 -0.34924,2.1481 -2.72339,5.00296 -4.7489,5.56598 -2.25366,0.62647 -6.40985,-0.12118 -7.52399,-1.76819 -6.40149,-9.46371 -16.40301,-11.42941 -26.29486,-13.2572 -33.85397,-6.25549 -75.52203,18.98038 -85.56406,52.10642 -2.52362,8.32492 -2.79446,17.3135 -4.53918,25.90808 -0.40543,1.99713 -2.60513,3.62994 -3.97928,5.43036 -2.30014,-1.89655 -6.17978,-3.49054 -6.61163,-5.74488 -1.43915,-7.51285 -1.81351,-15.25229 -2.27225,-22.92425 -0.5134,-8.58487 1.85822,-16.51541 6.59634,-23.65869 15.44236,-23.28101 35.43622,-40.74869 62.82538,-48.54764 3.47492,-0.98947 7.14374,-1.50794 10.75653,-1.76032 8.16425,-0.57025 13.30927,-4.41998 15.7811,-12.31799 0.54322,-1.73563 0.85202,-3.54944 1.46118,-5.2587 2.06391,-5.79086 8.6406,-9.39902 14.08243,-7.10968 3.40985,1.43448 3.34326,5.77554 3.23297,8.57566 -0.1839,4.66397 -1.9071,9.28298 -3.1336,13.88055 -0.36908,1.38321 -1.24079,2.63232 -2.01746,4.21921 4.57831,1.59485 8.88641,3.09555 13.53986,4.76565 z"
     id="path13"
     clip-path="url(#clipPath17)" /><path
     fill="#020202"
     opacity="1"
     stroke="none"
     d="m 715.87872,533.04633 c -16.03808,-31.17231 -12.19641,-61.99244 17.83869,-83.35694 20.40179,-14.51214 56.13708,-6.37243 58.4555,28.25372 0.8808,13.15519 1.28498,26.19755 -3.1593,38.90125 -6.09595,17.42505 -25.50946,33.23328 -43.6253,32.72168 -11.61243,-0.32806 -22.1153,-6.14856 -29.50959,-16.51971 z"
     id="path14"
     clip-path="url(#clipPath16)" /><path
     fill="#040404"
     opacity="1"
     stroke="none"
     d="m 796.18408,430.55466 c 20.99109,13.55926 29.74256,37.36813 21.79462,58.9624 -0.90589,2.4613 -1.9267,5.07223 -3.59998,7.00168 -1.47668,1.70276 -3.93988,2.54999 -5.9674,3.77502 -1.12567,-2.04892 -2.88996,-3.99103 -3.25403,-6.16736 -0.98523,-5.89007 -1.60083,-11.86606 -1.95984,-17.83224 -1.10144,-18.30444 -9.88348,-30.2702 -31.04755,-36.41535 -11.43854,-3.32125 -23.34411,-5.06625 -34.7525,-0.67541 -6.80072,2.61746 -12.90009,7.17911 -19.0965,11.20288 -4.2669,2.77084 -7.92974,3.11646 -10.81628,0.18671 -2.90314,-2.9466 -2.93958,-7.02137 0.46222,-11.29166 6.84277,-8.59003 15.98663,-13.82416 26.27771,-17.23077 14.06659,-4.65631 28.16833,-3.23304 43.16669,0.0644 1.2091,-3.84021 2.10552,-7.83051 3.73602,-11.49417 1.2428,-2.79251 2.88464,-6.42874 5.29657,-7.44849 3.95569,-1.67258 7.17767,1.40595 9.41522,4.77219 3.07037,4.61917 2.58618,9.43969 0.49664,14.26996 -0.90973,2.10281 -1.87329,4.18237 -2.8778,6.4179 0.79821,0.54572 1.61291,1.10273 2.72619,1.90235 z"
     id="path15"
     clip-path="url(#clipPath15)" /></g>
</svg>
