<?xml version="1.0" encoding="UTF-8" standalone="no"?>
<!-- Uploaded to: SVG Repo, www.svgrepo.com, Generator: SVG Repo Mixer Tools -->

<svg
   width="599.99994"
   height="516.56287"
   viewBox="0 0 17.999998 15.496886"
   fill="none"
   version="1.1"
   id="svg1"
   sodipodi:docname="house-sun-svgrepo-com.svg"
   xmlns:inkscape="http://www.inkscape.org/namespaces/inkscape"
   xmlns:sodipodi="http://sodipodi.sourceforge.net/DTD/sodipodi-0.dtd"
   xmlns="http://www.w3.org/2000/svg"
   xmlns:svg="http://www.w3.org/2000/svg">
  <defs
     id="defs1" />
  <sodipodi:namedview
     id="namedview1"
     pagecolor="#505050"
     bordercolor="#eeeeee"
     borderopacity="1"
     inkscape:showpageshadow="0"
     inkscape:pageopacity="0"
     inkscape:pagecheckerboard="0"
     inkscape:deskcolor="#505050">
    <inkscape:page
       x="0"
       y="0"
       width="17.999998"
       height="15.496886"
       id="page2"
       margin="0"
       bleed="0" />
  </sodipodi:namedview>
  <path
     d="M 1.0587749,8.0810064 7.8440737,1.7480652 C 8.2512984,1.3679674 8.4549143,1.1779168 8.6866868,1.1061295 c 0.2041469,-0.063219 0.4224733,-0.063219 0.6266178,0 0.2317757,0.071793 0.4353898,0.2618379 0.8426154,0.6419357 l 6.785304,6.3329412 M 3.1764332,6.1044827 V 12.73983 c 0,0.593078 0,0.889547 0.1154005,1.11602 0.1015193,0.199279 0.2635025,0.361137 0.4627313,0.462708 0.2264934,0.115423 0.5229973,0.115423 1.1159968,0.115423 h 8.2588692 c 0.593048,0 0.889507,0 1.116005,-0.115423 0.199261,-0.101627 0.361163,-0.263429 0.462705,-0.462708 0.115407,-0.226473 0.115407,-0.522942 0.115407,-1.11602 V 6.1044827"
     stroke="#000000"
     stroke-width="2.11755"
     stroke-linecap="round"
     stroke-linejoin="round"
     id="path1"
     inkscape:label="path1" />
</svg>
