<?xml version="1.0" encoding="UTF-8" standalone="no"?>
<!-- Uploaded to: SVG Repo, www.svgrepo.com, Generator: SVG Repo Mixer Tools -->

<svg
   width="729.57166"
   height="728.90265"
   viewBox="0 0 21.88715 21.867079"
   fill="none"
   version="1.1"
   id="svg1"
   xml:space="preserve"
   xmlns="http://www.w3.org/2000/svg"
   xmlns:svg="http://www.w3.org/2000/svg"><defs
     id="defs1" /><g
     style="fill:none;fill-opacity:1;stroke:#fdffe0;stroke-opacity:1"
     id="g1"
     transform="translate(-1.0566412,-1.0664108)"><path
       d="m 10.0002,13 c 0.4295,0.5741 0.9774,1.0491 1.6065,1.3929 0.6292,0.3438 1.325,0.5482 2.0401,0.5994 0.7152,0.0512 1.433,-0.052 2.1047,-0.3026 0.6718,-0.2505 1.2818,-0.6427 1.7887,-1.1497 l 3,-3 C 21.451,9.59695 21.955,8.33394 21.9436,7.02296 21.9322,5.71198 21.4063,4.45791 20.4793,3.53087 19.5523,2.60383 18.2982,2.07799 16.9872,2.0666 c -1.311,-0.0114 -2.574,0.49258 -3.517,1.40337 l -1.72,1.71 M 14.0002,11 C 13.5707,10.4258 13.0228,9.95078 12.3936,9.60703 11.7645,9.26327 11.0687,9.05885 10.3535,9.00763 9.63841,8.95641 8.92061,9.0596 8.24885,9.31018 7.5771,9.56077 6.96709,9.9529 6.4602,10.46 l -3,3 c -0.91079,0.943 -1.41476,2.206 -1.40337,3.517 0.01139,1.311 0.53724,2.565 1.46428,3.4921 0.92704,0.927 2.1811,1.4528 3.49208,1.4642 1.31099,0.0114 2.574,-0.4925 3.51701,-1.4033 l 1.71,-1.71"
       stroke="#000000"
       stroke-width="2"
       stroke-linecap="round"
       stroke-linejoin="round"
       id="path1"
       style="fill:none;fill-opacity:1;stroke:#fdffe0;stroke-opacity:1" /></g></svg>
