<?xml version="1.0" encoding="UTF-8" standalone="no"?>
<!-- Uploaded to: SVG Repo, www.svgrepo.com, Generator: SVG Repo Mixer Tools -->

<svg
   width="500.38647"
   height="660.48798"
   viewBox="0 0 15.011594 19.814639"
   fill="none"
   version="1.1"
   id="svg1"
   xml:space="preserve"
   xmlns="http://www.w3.org/2000/svg"
   xmlns:svg="http://www.w3.org/2000/svg"><defs
     id="defs1" /><g
     style="fill:none;stroke:#fdffe0;stroke-opacity:1"
     id="g1"
     transform="translate(-4.5000005,-2.185361)"><path
       d="M 12.5,8.89001 V 18.5 m 0,-9.60999 V 5.57656 c 0,-0.20734 0,-0.31102 0.0347,-0.39923 0.0306,-0.0779 0.0803,-0.14686 0.1445,-0.20055 0.0728,-0.06081 0.1711,-0.0936 0.3678,-0.15917 l 4.4,-1.46666 c 0.3555,-0.1185 0.5333,-0.17776 0.6748,-0.14223 0.1238,0.0311 0.2311,0.10841 0.2998,0.21607 C 18.5,3.54779 18.5,3.73516 18.5,4.10989 v 3.31346 c 0,0.20734 0,0.31101 -0.0347,0.39923 -0.0306,0.0779 -0.0803,0.14685 -0.1445,0.20055 -0.0728,0.06081 -0.1711,0.09359 -0.3678,0.15916 l -4.4,1.46667 C 13.1975,9.76746 13.0197,9.82671 12.8782,9.79119 12.7544,9.76009 12.6471,9.68278 12.5784,9.57512 12.5,9.45212 12.5,9.26475 12.5,8.89001 Z M 12.5,18.5 C 12.5,19.8807 10.933,21 9,21 7.067,21 5.5,19.8807 5.5,18.5 5.5,17.1192 7.067,16 9,16 c 1.933,0 3.5,1.1192 3.5,2.5 z"
       stroke="#000000"
       stroke-width="2"
       stroke-linecap="round"
       stroke-linejoin="round"
       id="path1"
       style="stroke:#fdffe0;stroke-opacity:1" /></g></svg>
