<?xml version="1.0" encoding="UTF-8" standalone="no"?>
<!-- Uploaded to: SVG Repo, www.svgrepo.com, Generator: SVG Repo Mixer Tools -->

<svg
   width="666.66663"
   height="666.66663"
   viewBox="0 0 19.999999 19.999999"
   fill="none"
   version="1.1"
   id="svg1"
   xml:space="preserve"
   xmlns="http://www.w3.org/2000/svg"
   xmlns:svg="http://www.w3.org/2000/svg"><defs
     id="defs1" /><g
     style="fill:none;stroke:#fdffe0;stroke-opacity:1"
     id="g1"
     transform="translate(-1.9999999,-1.9999999)"><path
       d="M 12.5,6.8935 V 5.57661 c 0,-0.20735 0,-0.31102 0.0347,-0.39923 0.0306,-0.0779 0.0803,-0.14686 0.1445,-0.20056 0.0728,-0.06081 0.1711,-0.09359 0.3678,-0.15916 l 4.4,-1.46667 c 0.3555,-0.1185 0.5333,-0.17775 0.6748,-0.14222 0.1238,0.0311 0.2311,0.10841 0.2998,0.21607 C 18.5,3.54783 18.5,3.7352 18.5,4.10994 v 3.31345 c 0,0.20735 0,0.31102 -0.0347,0.39923 C 18.4347,7.90052 18.385,7.96948 18.3208,8.02318 18.248,8.08399 18.1497,8.11677 17.953,8.18234 L 14.8192,9.22692 M 12.5,12.5 v 6 m 0,0 C 12.5,19.8807 10.933,21 9,21 7.067,21 5.5,19.8807 5.5,18.5 5.5,17.1193 7.067,16 9,16 c 1.933,0 3.5,1.1193 3.5,2.5 z M 3,3 21,21"
       stroke="#000000"
       stroke-width="2"
       stroke-linecap="round"
       stroke-linejoin="round"
       id="path1"
       style="stroke:#fdffe0;stroke-opacity:1" /></g></svg>
