<?xml version="1.0" encoding="UTF-8" standalone="no"?>
<!-- Uploaded to: SVG Repo, www.svgrepo.com, Generator: SVG Repo Mixer Tools -->

<svg
   width="666.66663"
   height="600"
   viewBox="0 0 19.999999 18"
   fill="none"
   version="1.1"
   id="svg1"
   xml:space="preserve"
   xmlns="http://www.w3.org/2000/svg"
   xmlns:svg="http://www.w3.org/2000/svg"><defs
     id="defs1" /><g
     style="fill:#fdffe0;fill-opacity:1;stroke:none;stroke-opacity:1"
     id="g1"
     transform="translate(-1.9999999,-3)"><path
       fill-rule="evenodd"
       clip-rule="evenodd"
       d="M 2,6 C 2,4.34315 3.34315,3 5,3 h 14 c 1.6569,0 3,1.34315 3,3 v 9 c 0,1.6569 -1.3431,3 -3,3 h -6 v 1 h 2 c 0.5523,0 1,0.4477 1,1 0,0.5523 -0.4477,1 -1,1 H 9 C 8.44772,21 8,20.5523 8,20 8,19.4477 8.44772,19 9,19 h 2 V 18 H 5 C 3.34315,18 2,16.6569 2,15 Z M 5,5 C 4.44772,5 4,5.44772 4,6 v 9 c 0,0.5523 0.44772,1 1,1 h 14 c 0.5523,0 1,-0.4477 1,-1 V 6 C 20,5.44772 19.5523,5 19,5 Z"
       fill="#000000"
       id="path1"
       style="fill:#fdffe0;fill-opacity:1;stroke:none;stroke-opacity:1" /></g></svg>
